<svg id="emoji" version="1.1" viewBox="0 0 72 72" xmlns="http://www.w3.org/2000/svg">
  <g id="colors" transform="matrix(.80897 0 0 .80897 6.8772 6.8772)">
    <path d="m65.05 36c0 16.044-13.006 29.05-29.05 29.05s-29.05-13.006-29.05-29.05 13.006-29.05 29.05-29.05 29.05 13.006 29.05 29.05z" style="fill-rule:evenodd;fill:#ffc833;paint-order:stroke markers fill;stroke-width:0"/>
  </g>
  <g id="elements" transform="matrix(.80897 0 0 .80897 6.8772 6.8772)">
    <path d="m30.436 27.985a4.4882 4.4882 0 0 1-4.4882 4.4882 4.4882 4.4882 0 0 1-4.4882-4.4882 4.4882 4.4882 0 0 1 4.4882-4.4882 4.4882 4.4882 0 0 1 4.4882 4.4882z" style="display:none;fill-rule:evenodd;fill:#1b1b1b;paint-order:stroke markers fill"/>
    <path d="m50.54 27.985a4.4882 4.4882 0 0 1-4.4882 4.4882 4.4882 4.4882 0 0 1-4.4882-4.4882 4.4882 4.4882 0 0 1 4.4882-4.4882 4.4882 4.4882 0 0 1 4.4882 4.4882z" style="display:none;fill-rule:evenodd;fill:#1b1b1b;paint-order:stroke markers fill"/>
    <path d="m53.787 42.708a17.787 13.406 0 0 1-8.8934 11.61 17.787 13.406 0 0 1-17.787-1e-6 17.787 13.406 0 0 1-8.8934-11.61" style="fill-rule:evenodd;fill:#1b1b1b;paint-order:stroke markers fill"/>
    <path d="m44.855 47.273a8.8555 14.731 0 0 1-4.4277 12.757 8.8555 14.731 0 0 1-8.8555 0 8.8555 14.731 0 0 1-4.4277-12.757" style="fill-rule:evenodd;fill:#ff432a;paint-order:stroke markers fill;stroke-width:0"/>
  </g>
  <g transform="translate(0 -1.1024e-5)">
    <path d="m24.119 25.168c-0.35931 0.13713-0.66784 0.41027-0.83594 0.78516v2e-3c-0.33512 0.75025 0.0061 1.6443 0.75586 1.9805l3.7031 1.6582-3.7969 1.2012c-0.78366 0.24777-1.2254 1.0969-0.97852 1.8809 0.24772 0.78513 1.098 1.2273 1.8828 0.97852l8.748-2.7676c0.42615-0.13485 0.69074-0.53073 0.71289-0.91797 0.02215-0.38724-0.19552-0.81159-0.60352-0.99414l-8.4434-3.7773c-0.37512-0.16756-0.78522-0.16643-1.1445-0.0293z" style="fill-rule:evenodd;fill:#1b1b1b;paint-order:stroke markers fill;stroke-linecap:round"/>
  </g>
  <g transform="matrix(-1 0 0 1 72 -.00011333)">
    <path d="m24.119 25.168c-0.35931 0.13713-0.66784 0.41027-0.83594 0.78516v2e-3c-0.33512 0.75025 0.0061 1.6443 0.75586 1.9805l3.7031 1.6582-3.7969 1.2012c-0.78366 0.24777-1.2254 1.0969-0.97852 1.8809 0.24772 0.78513 1.098 1.2273 1.8828 0.97852l8.748-2.7676c0.42615-0.13485 0.69074-0.53073 0.71289-0.91797 0.02215-0.38724-0.19552-0.81159-0.60352-0.99414l-8.4434-3.7773c-0.37512-0.16756-0.78522-0.16643-1.1445-0.0293z" style="fill-rule:evenodd;fill:#1b1b1b;paint-order:stroke markers fill;stroke-linecap:round"/>
  </g>
</svg>
