<svg id="emoji" version="1.1" viewBox="0 0 72 72" xmlns="http://www.w3.org/2000/svg">
  <g id="colors">
    <path d="m65.05 36a29.05 29.05 0 0 1-29.05 29.05 29.05 29.05 0 0 1-29.05-29.05 29.05 29.05 0 0 1 29.05-29.05 29.05 29.05 0 0 1 29.05 29.05z" style="fill-rule:evenodd;fill:#ffc833;paint-order:stroke markers fill;stroke-width:0"/>
  </g>
  <g id="elements">
    <path d="m30.436 27.985a4.4882 4.4882 0 0 1-4.4882 4.4882 4.4882 4.4882 0 0 1-4.4882-4.4882 4.4882 4.4882 0 0 1 4.4882-4.4882 4.4882 4.4882 0 0 1 4.4882 4.4882z" style="fill-rule:evenodd;fill:#1b1b1b;paint-order:stroke markers fill;stroke-width:0"/>
    <path d="m50.54 27.985a4.4882 4.4882 0 0 1-4.4882 4.4882 4.4882 4.4882 0 0 1-4.4882-4.4882 4.4882 4.4882 0 0 1 4.4882-4.4882 4.4882 4.4882 0 0 1 4.4882 4.4882z" style="fill-rule:evenodd;fill:#1b1b1b;paint-order:stroke markers fill;stroke-width:0"/>
  </g>
</svg>
