<svg id="emoji" version="1.1" viewBox="0 0 72 72" xmlns="http://www.w3.org/2000/svg">
  <g id="colors" transform="matrix(.80897 0 0 .80897 6.8772 6.8772)">
    <path d="M 65.05,36 A 29.05,29.05 0 0 1 36,65.05 29.05,29.05 0 0 1 6.95,36 29.05,29.05 0 0 1 36,6.95 29.05,29.05 0 0 1 65.05,36 Z" style="fill-rule:evenodd;fill:#ffc833;paint-order:stroke markers fill;stroke-width:0"/>
  </g>
  <g id="elements" transform="matrix(.80897 0 0 .80897 6.8772 6.8772)">
    <path d="m30.436 27.985a4.4882 4.4882 0 0 1-4.4882 4.4882 4.4882 4.4882 0 0 1-4.4882-4.4882 4.4882 4.4882 0 0 1 4.4882-4.4882 4.4882 4.4882 0 0 1 4.4882 4.4882z" style="fill-rule:evenodd;fill:#1b1b1b;paint-order:stroke markers fill;stroke-width:0"/>
    <path d="m50.54 27.985a4.4882 4.4882 0 0 1-4.4882 4.4882 4.4882 4.4882 0 0 1-4.4882-4.4882 4.4882 4.4882 0 0 1 4.4882-4.4882 4.4882 4.4882 0 0 1 4.4882 4.4882z" style="fill-rule:evenodd;fill:#1b1b1b;paint-order:stroke markers fill;stroke-width:0"/>
  </g>
</svg>
